<?xml version="1.0" encoding="UTF-8"?>
<svg width="600" height="400" viewBox="0 0 600 400" fill="none" xmlns="http://www.w3.org/2000/svg">
    <defs>
        <linearGradient id="grad1" x1="0%" y1="0%" x2="100%" y2="0%">
            <stop offset="0%" style="stop-color:#01BEFE"/>
            <stop offset="100%" style="stop-color:#8F00FF"/>
        </linearGradient>
    </defs>
    
    <!-- Background Elements -->
    <circle cx="300" cy="200" r="150" fill="url(#grad1)" opacity="0.1"/>
    <circle cx="300" cy="200" r="100" fill="url(#grad1)" opacity="0.2"/>
    
    <!-- Task List Illustration -->
    <rect x="200" y="100" width="200" height="250" rx="10" fill="white" stroke="url(#grad1)" stroke-width="2"/>
    
    <!-- Task Items -->
    <rect x="220" y="130" width="160" height="20" rx="5" fill="#01BEFE" opacity="0.3"/>
    <rect x="220" y="170" width="160" height="20" rx="5" fill="#8F00FF" opacity="0.3"/>
    <rect x="220" y="210" width="160" height="20" rx="5" fill="#01BEFE" opacity="0.3"/>
    
    <!-- Checkmarks -->
    <circle cx="240" cy="140" r="8" fill="#01BEFE"/>
    <path d="M235 140 L240 145 L245 135" stroke="white" stroke-width="2"/>
    
    <circle cx="240" cy="180" r="8" fill="#8F00FF"/>
    <path d="M235 180 L240 185 L245 175" stroke="white" stroke-width="2"/>
    
    <circle cx="240" cy="220" r="8" fill="#01BEFE"/>
    <path d="M235 220 L240 225 L245 215" stroke="white" stroke-width="2"/>
    
    <!-- Decorative Elements -->
    <circle cx="150" cy="100" r="30" fill="url(#grad1)" opacity="0.2"/>
    <circle cx="450" cy="300" r="40" fill="url(#grad1)" opacity="0.2"/>
    <circle cx="100" cy="350" r="20" fill="url(#grad1)" opacity="0.2"/>
    <circle cx="500" cy="150" r="25" fill="url(#grad1)" opacity="0.2"/>
</svg>
